<svg width="66" height="73" viewBox="0 0 66 73" fill="none" xmlns="http://www.w3.org/2000/svg">
<g filter="url(#filter0_d_846_67)">
<path d="M31.9496 5.26802C32.5684 4.91076 33.3308 4.91076 33.9496 5.26802L54.8993 17.3633C55.5181 17.7206 55.8993 18.3808 55.8993 19.0954V43.286C55.8993 44.0005 55.5181 44.6608 54.8993 45.018L33.9496 57.1133C33.3308 57.4706 32.5684 57.4706 31.9496 57.1133L11 45.018C10.3812 44.6608 9.99997 44.0005 9.99997 43.286V19.0954C9.99997 18.3808 10.3812 17.7206 11 17.3633L31.9496 5.26802Z" fill="#2563EB"/>
</g>
<path d="M43.4496 33.1173H34.8782V41.6887H32.0211V33.1173H23.4496V30.2601H32.0211V21.6887H34.8782V30.2601H43.4496V33.1173Z" fill="#F6F9FF"/>
<defs>
<filter id="filter0_d_846_67" x="0" y="0" width="65.8993" height="72.3813" filterUnits="userSpaceOnUse" color-interpolation-filters="sRGB">
<feFlood flood-opacity="0" result="BackgroundImageFix"/>
<feColorMatrix in="SourceAlpha" type="matrix" values="0 0 0 0 0 0 0 0 0 0 0 0 0 0 0 0 0 0 127 0" result="hardAlpha"/>
<feOffset dy="5"/>
<feGaussianBlur stdDeviation="5"/>
<feComposite in2="hardAlpha" operator="out"/>
<feColorMatrix type="matrix" values="0 0 0 0 0.0313726 0 0 0 0 0.486275 0 0 0 0 0.486275 0 0 0 0.101961 0"/>
<feBlend mode="normal" in2="BackgroundImageFix" result="effect1_dropShadow_846_67"/>
<feBlend mode="normal" in="SourceGraphic" in2="effect1_dropShadow_846_67" result="shape"/>
</filter>
</defs>
</svg>
